<?xml version="1.0" standalone="no"?>
<!DOCTYPE svg PUBLIC "-//W3C//DTD SVG 20010904//EN"
 "http://www.w3.org/TR/2001/REC-SVG-20010904/DTD/svg10.dtd">
<svg version="1.0" xmlns="http://www.w3.org/2000/svg"
 width="180.000000pt" height="180.000000pt" viewBox="0 0 180.000000 180.000000"
 preserveAspectRatio="xMidYMid meet">
<metadata>
Created for Moment Capturers Photography
</metadata>
<g transform="translate(0.000000,180.000000) scale(0.100000,-0.100000)"
fill="#000000" stroke="none">
<path d="M0 900 l0 -900 900 0 900 0 0 900 0 900 -900 0 -900 0 0 -900z m1200
400 c110 -57 200 -106 200 -110 0 -3 -90 -52 -200 -110 l-200 -105 0 215 c0
118 2 215 5 215 3 0 85 -48 195 -105z m-600 -295 c0 -118 -2 -215 -5 -215 -3
0 -85 48 -195 105 -110 57 -200 106 -200 110 0 3 90 52 200 110 l200 105 0
-215z"/>
</g>
</svg>